<svg width="30" height="20" viewBox="0 0 30 20" fill="none" xmlns="http://www.w3.org/2000/svg">
<rect width="30" height="20" rx="2" fill="#005AD7"/>
<path fill-rule="evenodd" clip-rule="evenodd" d="M13.2632 10.0735C14.1539 10.0735 14.8759 10.6168 14.8759 11.2869C14.8759 11.9572 14.1539 12.5004 13.2632 12.5004C12.3729 12.5004 11.651 11.9572 11.651 11.2869C11.651 10.6168 12.3729 10.0735 13.2632 10.0735ZM18.7022 7.5L18.7013 9.11035L19.2069 9.11075V9.61392L18.7013 9.61388L18.7022 12.3428H18.1151V7.5H18.7022ZM10.622 10.305V12.3369H7.75444V10.305H10.622ZM13.2632 10.6091C12.7096 10.6091 12.2605 10.9126 12.2605 11.2869C12.2605 11.6612 12.7096 11.9648 13.2632 11.9648C13.8172 11.9648 14.2663 11.6612 14.2663 11.2869C14.2663 10.9126 13.8172 10.6091 13.2632 10.6091ZM23 11.3541V11.8572H19.4552V11.3541H23ZM10.0362 10.8008H8.3402V11.8406H10.0362V10.8008ZM15.5927 7.75686L17.6556 7.75728C17.7729 11.0459 15.6624 11.5947 15.6624 11.5947L15.4205 11.1099C16.2223 10.8122 16.6436 10.1982 16.8646 9.6146L15.5273 9.61392V9.11075L17.0136 9.11025C17.1211 8.62161 17.1061 8.24482 17.1061 8.24482H15.5927V7.75686ZM19.6701 7.67663L20.2561 7.67694L22.6388 7.67722V8.18047L20.2561 8.17953L20.2569 9.65271L22.665 9.65212V10.1551L19.6701 10.156V7.67663ZM10.6221 7.61826V8.66795H11.1411V9.17591H10.6108V10.1017H10.0122V7.61826H10.6221ZM14.7534 7.61826V10.1017H14.1551V8.9618H13.3763V8.4536H14.1438V7.61826H14.7534ZM8.57311 7.70886C8.57311 7.70886 8.5725 7.71902 8.57212 7.73792L8.57243 7.81951C8.58067 8.15217 8.68253 9.14858 9.58146 9.60859L9.26862 10.0409C9.26862 10.0409 8.47135 9.5149 8.29102 8.93913C8.11011 9.5149 7.31309 10.0409 7.31309 10.0409L7 9.60859C8.08843 9.05173 8.0086 7.70886 8.0086 7.70886H8.57311ZM12.6279 7.70866C12.6279 7.70866 12.6273 7.71882 12.6268 7.7377L12.6268 7.8191C12.6334 8.15071 12.7256 9.14091 13.5694 9.56427L13.2568 9.9961C13.2568 9.9961 12.5265 9.51495 12.3457 8.9391C12.1651 9.51495 11.4344 9.9961 11.4344 9.9961L11.1218 9.56427C12.1436 9.05178 12.0633 7.70866 12.0633 7.70866H12.6279Z" fill="white"/>
</svg>
