<svg width="30" height="20" viewBox="0 0 30 20" fill="none" xmlns="http://www.w3.org/2000/svg">
<rect width="30" height="20" rx="2" fill="#0B1966"/>
<mask id="mask0_1525_17249" style="mask-type:alpha" maskUnits="userSpaceOnUse" x="7" y="2" width="16" height="16">
<path d="M15.0001 2C10.5818 2 7 5.54436 7 9.91711C7 14.2904 10.5818 17.8347 15.0001 17.8347C19.4187 17.8347 23 14.2904 23 9.91711C23 5.54436 19.4187 2 15.0001 2Z" fill="white"/>
</mask>
<g mask="url(#mask0_1525_17249)">
<path fill-rule="evenodd" clip-rule="evenodd" d="M15.0001 2C10.5818 2 7 5.54436 7 9.91711C7 14.2904 10.5818 17.8347 15.0001 17.8347C19.4187 17.8347 23 14.2904 23 9.91711C23 5.54436 19.4187 2 15.0001 2Z" fill="url(#paint0_radial_1525_17249)"/>
</g>
<mask id="mask1_1525_17249" style="mask-type:alpha" maskUnits="userSpaceOnUse" x="15" y="3" width="6" height="7">
<path d="M15.5136 3.98825C15.5136 3.98825 16.1263 4.70947 15.7468 5.54585C15.3685 6.38255 14.7558 8.17063 15.5425 8.83377C16.3294 9.49791 17.8737 9.29572 17.1752 7.65176C16.4757 6.0073 17.5254 5.57513 18.0781 6.90175C18.6323 8.2287 19.434 8.15598 20.0891 7.50649C20.745 6.85865 20.3225 6.15141 19.5643 5.97868C18.8075 5.80561 18.2814 5.08506 18.8647 4.94045C19.1112 4.87921 19.2536 4.9729 19.3775 5.06642C19.547 5.19439 19.6822 5.32236 20.002 5.05577C20.5549 4.59382 19.5358 3.93101 17.9327 3.8726C16.3294 3.81535 16.417 3.7864 15.7468 3.4406C15.7468 3.4406 15.7424 3.44043 15.7349 3.44043C15.658 3.44043 15.2486 3.46423 15.5136 3.98825Z" fill="white"/>
</mask>
<g mask="url(#mask1_1525_17249)">
<path fill-rule="evenodd" clip-rule="evenodd" d="M15.5129 3.98874C15.5129 3.98874 16.1256 4.70996 15.7461 5.54633C15.3678 6.38304 14.755 8.17111 15.5418 8.83426C16.3287 9.4984 17.8729 9.29621 17.1745 7.65225C16.475 6.00779 17.5247 5.57562 18.0774 6.90224C18.6316 8.22919 19.4333 8.15647 20.0884 7.50697C20.7443 6.85914 20.3218 6.1519 19.5636 5.97917C18.8068 5.8061 18.2807 5.08555 18.864 4.94094C19.1105 4.8797 19.2529 4.97339 19.3768 5.06691C19.5463 5.19488 19.6815 5.32285 20.0013 5.05626C20.5541 4.5943 19.535 3.93149 17.9319 3.87308C16.3287 3.81584 16.4163 3.78688 15.7461 3.44108C15.7461 3.44108 15.7417 3.44092 15.7341 3.44092C15.6573 3.44092 15.2479 3.46471 15.5129 3.98874Z" fill="url(#paint1_radial_1525_17249)"/>
</g>
<mask id="mask2_1525_17249" style="mask-type:alpha" maskUnits="userSpaceOnUse" x="8" y="11" width="7" height="6">
<path d="M8.55796 11.8855C9.25054 16.8996 13.5701 16.5296 13.5701 16.5296C13.5701 16.5296 15.4096 16.3441 13.6231 15.7919C11.8373 15.2376 12.7699 15.0799 13.2767 14.47C13.7832 13.8652 14.103 13.3106 12.5302 13.6807C10.9574 14.0495 11.5701 14.2074 11.4376 12.4662C11.3034 10.7248 10.371 12.5458 10.2106 12.7302C10.0511 12.9154 9.78373 12.7566 9.06424 11.4907C8.8655 11.1411 8.73787 11.0146 8.65733 11.0146C8.44598 11.0148 8.55796 11.8855 8.55796 11.8855Z" fill="white"/>
</mask>
<g mask="url(#mask2_1525_17249)">
<path fill-rule="evenodd" clip-rule="evenodd" d="M8.55821 11.886C9.25079 16.9001 13.5704 16.5301 13.5704 16.5301C13.5704 16.5301 15.4099 16.3446 13.6234 15.7924C11.8375 15.2381 12.7702 15.0804 13.277 14.4705C13.7834 13.8657 14.1032 13.3111 12.5304 13.6812C10.9576 14.05 11.5703 14.2079 11.4378 12.4667C11.3036 10.7253 10.3713 12.5463 10.2109 12.7307C10.0513 12.9159 9.78397 12.7571 9.06448 11.4912C8.86574 11.1416 8.73812 11.0151 8.65758 11.0151C8.44622 11.0153 8.55821 11.886 8.55821 11.886Z" fill="url(#paint2_radial_1525_17249)"/>
</g>
<mask id="mask3_1525_17249" style="mask-type:alpha" maskUnits="userSpaceOnUse" x="10" y="2" width="10" height="15">
<path d="M13.3431 2.9869C13.1309 2.99023 13.0668 2.98573 12.8824 3.00387C11.4119 3.14482 10.1816 4.5425 10.1816 6.09427C10.1816 6.3547 10.2148 6.60747 10.2766 6.84893C10.3513 7.31422 10.7332 8.45346 12.5814 10.2244C13.4514 11.0574 14.3397 11.7915 15.1202 12.4383C15.9817 13.1519 16.8774 13.9917 17.115 14.3029C17.3524 14.6113 17.4601 14.8378 17.4601 15.197C17.4601 15.8888 16.9176 16.4526 16.2313 16.4985C16.2313 16.4985 15.9441 16.5213 15.7852 16.5937C15.6902 16.6372 15.6184 16.7056 15.6123 16.819C15.5932 17.165 16.87 16.9059 17.342 16.748C17.3662 16.7408 17.3852 16.731 17.3992 16.7239C18.5207 16.4599 19.353 15.4803 19.353 14.3136C19.353 13.6989 19.1216 13.1362 18.7386 12.7026C17.8821 11.466 16.1169 10.1854 14.61 8.8342C13.754 8.06705 12.9816 7.27661 12.5067 6.45804C12.23 5.98227 12.0213 5.49636 12.0213 4.99946C12.0213 4.2383 12.8146 3.56234 13.7209 3.43421C13.8981 3.41341 13.8377 3.42206 13.9724 3.40958C14.1391 3.3946 14.3383 3.3713 14.4454 3.28061C14.4895 3.24417 14.5167 3.19874 14.5167 3.14182C14.5167 2.99505 14.2341 2.96094 13.9415 2.96094C13.6943 2.96094 13.4401 2.98523 13.3431 2.9869Z" fill="white"/>
</mask>
<g mask="url(#mask3_1525_17249)">
<path fill-rule="evenodd" clip-rule="evenodd" d="M13.3431 2.98739C13.1309 2.99071 13.0668 2.98622 12.8824 3.00436C11.4119 3.14531 10.1816 4.54298 10.1816 6.09475C10.1816 6.35519 10.2148 6.60796 10.2766 6.84942C10.3513 7.3147 10.7332 8.45395 12.5814 10.2249C13.4514 11.0579 14.3397 11.792 15.1202 12.4388C15.9817 13.1524 16.8774 13.9922 17.115 14.3034C17.3524 14.6118 17.4601 14.8383 17.4601 15.1975C17.4601 15.8893 16.9176 16.4531 16.2313 16.499C16.2313 16.499 15.9441 16.5218 15.7852 16.5942C15.6902 16.6376 15.6184 16.706 15.6123 16.8195C15.5932 17.1655 16.87 16.9064 17.342 16.7485C17.3662 16.7413 17.3852 16.7315 17.3992 16.7243C18.5207 16.4604 19.353 15.4808 19.353 14.3141C19.353 13.6993 19.1216 13.1367 18.7386 12.7031C17.8821 11.4665 16.1169 10.1859 14.61 8.83469C13.754 8.06754 12.9816 7.2771 12.5067 6.45853C12.23 5.98276 12.0213 5.49684 12.0213 4.99995C12.0213 4.23879 12.8146 3.56283 13.7209 3.4347C13.8981 3.41389 13.8377 3.42255 13.9724 3.41007C14.1391 3.39509 14.3383 3.37179 14.4454 3.2811C14.4895 3.24466 14.5167 3.19923 14.5167 3.14231C14.5167 2.99554 14.2341 2.96143 13.9415 2.96143C13.6943 2.96143 13.4401 2.98572 13.3431 2.98739Z" fill="url(#paint3_radial_1525_17249)"/>
</g>
<defs>
<radialGradient id="paint0_radial_1525_17249" cx="0" cy="0" r="1" gradientUnits="userSpaceOnUse" gradientTransform="translate(16.9891 8.29581) scale(8.30384 8.30383)">
<stop stop-color="#00ADDC"/>
<stop offset="1" stop-color="#0068AE"/>
</radialGradient>
<radialGradient id="paint1_radial_1525_17249" cx="0" cy="0" r="1" gradientUnits="userSpaceOnUse" gradientTransform="translate(16.1998 7.38383) scale(5.80531)">
<stop stop-color="#FCFBF8"/>
<stop offset="1" stop-color="#D6AD78"/>
</radialGradient>
<radialGradient id="paint2_radial_1525_17249" cx="0" cy="0" r="1" gradientUnits="userSpaceOnUse" gradientTransform="translate(15.7701 7.70765) scale(5.80423)">
<stop stop-color="#FCFBF8"/>
<stop offset="1" stop-color="#D6AD78"/>
</radialGradient>
<radialGradient id="paint3_radial_1525_17249" cx="0" cy="0" r="1" gradientUnits="userSpaceOnUse" gradientTransform="translate(16.1953 6.12247) scale(5.80566 5.80566)">
<stop stop-color="#FCFBF8"/>
<stop offset="1" stop-color="#D6AD78"/>
</radialGradient>
</defs>
</svg>
