<svg width="30" height="20" viewBox="0 0 30 20" fill="none" xmlns="http://www.w3.org/2000/svg">
<rect width="30" height="20" rx="2" fill="black"/>
<path fill-rule="evenodd" clip-rule="evenodd" d="M7 12.1481L7.77055 11.2257C8.304 11.6653 8.86215 11.9443 9.54008 11.9443C10.0735 11.9443 10.3946 11.7332 10.3946 11.3862V11.3689C10.3946 11.0392 10.1908 10.87 9.20173 10.6156C8.00764 10.3106 7.23709 9.97969 7.23709 8.80288V8.78559C7.23709 7.71127 8.10025 7 9.31164 7C10.1748 7 10.9108 7.27167 11.5121 7.75326L10.8354 8.73496C10.3106 8.37068 9.79446 8.15211 9.29435 8.15211C8.79547 8.15211 8.53245 8.38056 8.53245 8.66828V8.68433C8.53245 9.07455 8.78683 9.20173 9.81051 9.46352C11.0133 9.77717 11.69 10.2094 11.69 11.2417V11.259C11.69 12.4346 10.7922 13.0964 9.51415 13.0964C8.61765 13.0964 7.71127 12.7828 7 12.1481Z" fill="#AF855B"/>
<path fill-rule="evenodd" clip-rule="evenodd" d="M12.1904 12.1481L12.961 11.2257C13.4944 11.6653 14.0526 11.9443 14.7305 11.9443C15.264 11.9443 15.5863 11.7332 15.5863 11.3862V11.3689C15.5863 11.0392 15.3813 10.87 14.3922 10.6156C13.1981 10.3106 12.4275 9.97969 12.4275 8.80288V8.78559C12.4275 7.71127 13.2907 7 14.5021 7C15.3652 7 16.1012 7.27167 16.7026 7.75326L16.0259 8.73496C15.5011 8.37068 14.9849 8.15211 14.4848 8.15211C13.9859 8.15211 13.7229 8.38056 13.7229 8.66828V8.68433C13.7229 9.07455 13.9773 9.20173 15.0009 9.46352C16.2037 9.77717 16.8804 10.2094 16.8804 11.2417V11.259C16.8804 12.4346 15.9826 13.0964 14.7046 13.0964C13.8081 13.0964 12.9017 12.7828 12.1904 12.1481Z" fill="#AF855B"/>
<path fill-rule="evenodd" clip-rule="evenodd" d="M17.3833 10.0664V10.0491C17.3833 8.37338 18.6885 7.00146 20.4729 7.00146C21.5349 7.00146 22.1733 7.28671 22.7882 7.80906L21.972 8.79446C21.5176 8.41537 21.1125 8.1968 20.4309 8.1968C19.4887 8.1968 18.7392 9.03032 18.7392 10.033V10.0491C18.7392 11.1259 19.4801 11.9186 20.5235 11.9186C20.9952 11.9186 21.4163 11.8001 21.7448 11.5642V10.7221H20.4396V9.60329H22.9994V12.1619C22.3931 12.6756 21.5596 13.0967 20.4815 13.0967C18.6466 13.0967 17.3833 11.8087 17.3833 10.0664Z" fill="#AF855B"/>
</svg>
